ffmpeg version 6.1.1-essentials_build-www.gyan.dev Copyright (c) 2000-2023 the FFmpeg developers
  built with gcc 12.2.0 (Rev10, Built by MSYS2 project)
  configuration: --enable-gpl --enable-version3 --enable-static --pkg-config=pkgconf --disable-w32threads --disable-autodetect --enable-fontconfig --enable-iconv --enable-gnutls --enable-libxml2 --enable-gmp --enable-bzlib --enable-lzma --enable-zlib --enable-libsrt --enable-libssh --enable-libzmq --enable-avisynth --enable-sdl2 --enable-libwebp --enable-libx264 --enable-libx265 --enable-libxvid --enable-libaom --enable-libopenjpeg --enable-libvpx --enable-mediafoundation --enable-libass --enable-libfreetype --enable-libfribidi --enable-libharfbuzz --enable-libvidstab --enable-libvmaf --enable-libzimg --enable-amf --enable-cuda-llvm --enable-cuvid --enable-ffnvcodec --enable-nvdec --enable-nvenc --enable-dxva2 --enable-d3d11va --enable-libvpl --enable-libgme --enable-libopenmpt --enable-libopencore-amrwb --enable-libmp3lame --enable-libtheora --enable-libvo-amrwbenc --enable-libgsm --enable-libopencore-amrnb --enable-libopus --enable-libspeex --enable-libvorbis --enable-librubberband
  libavutil      58. 29.100 / 58. 29.100
  libavcodec     60. 31.102 / 60. 31.102
  libavformat    60. 16.100 / 60. 16.100
  libavdevice    60.  3.100 / 60.  3.100
  libavfilter     9. 12.100 /  9. 12.100
  libswscale      7.  5.100 /  7.  5.100
  libswresample   4. 12.100 /  4. 12.100
  libpostproc    57.  3.100 / 57.  3.100
Fontconfig error: Cannot load default config file: No such file: (null)
Fontconfig error: Cannot load default config file: No such file: (null)
Input #0, lavfi, from 'color=size=2560x1440:duration=22:rate=30:color=black':
  Duration: N/A, start: 0.000000, bitrate: N/A
  Stream #0:0: Video: wrapped_avframe, yuv420p, 2560x1440 [SAR 1:1 DAR 16:9], 30 fps, 30 tbr, 30 tbn
[mov,mp4,m4a,3gp,3g2,mj2 @ 000002191a2790c0] Unknown cover type: 0x1.
Input #1, mov,mp4,m4a,3gp,3g2,mj2, from 'C:\Users\engsa\Desktop\CREATOCLONE\uploads\video-1766932477519-0.bin':
  Metadata:
    major_brand     : qt  
    minor_version   : 0
    compatible_brands: qt  
    creation_time   : 2025-10-15T08:38:31.000000Z
  Duration: 00:00:24.64, start: 0.000000, bitrate: 16561 kb/s
  Stream #1:0[0x1](und): Video: h264 (High) (avc1 / 0x31637661), yuv420p(tv, bt709, progressive), 1972x1080, 16365 kb/s, 50 fps, 50 tbr, 600 tbn (default)
    Metadata:
      creation_time   : 2025-10-15T08:38:31.000000Z
      handler_name    : Core Media Video
      vendor_id       : [0][0][0][0]
      encoder         : H.264
  Stream #1:1[0x2](und): Audio: aac (LC) (mp4a / 0x6134706D), 44100 Hz, stereo, fltp, 188 kb/s (default)
    Metadata:
      creation_time   : 2025-10-15T08:38:31.000000Z
      handler_name    : Core Media Audio
      vendor_id       : [0][0][0][0]
Input #2, jpeg_pipe, from 'C:\Users\engsa\Desktop\CREATOCLONE\uploads\image-1766932477926-1.bin':
  Duration: N/A, bitrate: N/A
  Stream #2:0: Video: mjpeg (Baseline), yuvj444p(pc, bt470bg/unknown/unknown), 1280x707 [SAR 72:72 DAR 1280:707], 25 fps, 25 tbr, 25 tbn
Input #3, jpeg_pipe, from 'C:\Users\engsa\Desktop\CREATOCLONE\uploads\image-1766932477938-2.bin':
  Duration: N/A, bitrate: N/A
  Stream #3:0: Video: mjpeg (Progressive), yuvj420p(pc, bt470bg/unknown/unknown), 400x400 [SAR 1:1 DAR 1:1], 25 fps, 25 tbr, 25 tbn
[mp3 @ 000002191b3711c0] Estimating duration from bitrate, this may be inaccurate
Input #4, mp3, from 'C:\Users\engsa\Desktop\CREATOCLONE\uploads\audio-1766932477941-0.mp3':
  Metadata:
    encoder         : Lavf60.16.100
  Duration: 00:00:03.42, start: 0.000000, bitrate: 128 kb/s
  Stream #4:0: Audio: mp3, 44100 Hz, mono, fltp, 128 kb/s
Stream mapping:
  Stream #0:0 (wrapped_avframe) -> overlay
  Stream #1:0 (h264) -> scale:default
  Stream #1:1 (aac) -> adelay:default
  Stream #2:0 (mjpeg) -> scale:default
  Stream #3:0 (mjpeg) -> scale:default
  Stream #4:0 (mp3float) -> adelay:default
  overlay:default -> Stream #0:0 (libx264)
  amix:default -> Stream #0:1 (aac)
Press [q] to stop, [?] for help
Fontconfig error: Cannot load default config file: No such file: (null)
Fontconfig error: Cannot load default config file: No such file: (null)
[swscaler @ 00000219242a68c0] deprecated pixel format used, make sure you did set range correctly
[swscaler @ 0000021925576040] deprecated pixel format used, make sure you did set range correctly
[swscaler @ 00000219249de040] deprecated pixel format used, make sure you did set range correctly
    Last message repeated 2 times
[swscaler @ 0000021925820640] deprecated pixel format used, make sure you did set range correctly
    Last message repeated 2 times
[libx264 @ 000002191ba01880] using SAR=1/1
[libx264 @ 000002191ba01880] using cpu capabilities: MMX2 SSE2Fast SSSE3 SSE4.2 AVX FMA3 BMI2 AVX2
[libx264 @ 000002191ba01880] profile High, level 5.0, 4:2:0, 8-bit
[libx264 @ 000002191ba01880] 264 - core 164 r3172 c1c9931 - H.264/MPEG-4 AVC codec - Copyleft 2003-2023 - http://www.videolan.org/x264.html - options: cabac=1 ref=3 deblock=1:0:0 analyse=0x3:0x113 me=hex subme=7 psy=1 psy_rd=1.00:0.00 mixed_ref=1 me_range=16 chroma_me=1 trellis=1 8x8dct=1 cqm=0 deadzone=21,11 fast_pskip=1 chroma_qp_offset=-2 threads=36 lookahead_threads=6 sliced_threads=0 nr=0 decimate=1 interlaced=0 bluray_compat=0 constrained_intra=0 bframes=3 b_pyramid=2 b_adapt=1 b_bias=0 direct=1 weightb=1 open_gop=0 weightp=2 keyint=250 keyint_min=25 scenecut=40 intra_refresh=0 rc_lookahead=40 rc=crf mbtree=1 crf=23.0 qcomp=0.60 qpmin=0 qpmax=69 qpstep=4 ip_ratio=1.40 aq=1:1.00
Output #0, mp4, to 'C:\Users\engsa\Desktop\CREATOCLONE\uploads\render-1766932477519.mp4':
  Metadata:
    encoder         : Lavf60.16.100
  Stream #0:0: Video: h264 (avc1 / 0x31637661), yuv420p(progressive), 2560x1440 [SAR 1:1 DAR 16:9], q=2-31, 30 fps, 15360 tbn
    Metadata:
      encoder         : Lavc60.31.102 libx264
    Side data:
      cpb: bitrate max/min/avg: 0/0/0 buffer size: 0 vbv_delay: N/A
  Stream #0:1: Audio: aac (LC) (mp4a / 0x6134706D), 44100 Hz, mono, fltp, 192 kb/s
    Metadata:
      encoder         : Lavc60.31.102 aac
frame=    0 fps=0.0 q=0.0 size=       0kB time=N/A bitrate=N/A speed=N/A    frame=    0 fps=0.0 q=0.0 size=       0kB time=00:00:00.58 bitrate=   0.7kbits/s speed=1.07x    frame=    0 fps=0.0 q=0.0 size=       0kB time=00:00:01.48 bitrate=   0.3kbits/s speed=1.42x    frame=    0 fps=0.0 q=0.0 size=       0kB time=00:00:02.18 bitrate=   0.2kbits/s speed=1.41x    frame=   13 fps=6.3 q=29.0 size=    1024kB time=00:00:03.01 bitrate=2779.1kbits/s speed=1.47x    frame=   39 fps= 15 q=29.0 size=    2816kB time=00:00:03.87 bitrate=5949.1kbits/s speed=1.51x    frame=   71 fps= 23 q=29.0 size=    4864kB time=00:00:04.94 bitrate=8056.5kbits/s speed=1.62x    frame=  108 fps= 30 q=29.0 size=    8192kB time=00:00:06.15 bitrate=10906.2kbits/s speed=1.73x    frame=  140 fps= 34 q=29.0 size=   11264kB time=00:00:07.22 bitrate=12778.0kbits/s speed=1.78x    frame=  178 fps= 39 q=29.0 size=   15360kB time=00:00:08.54 bitrate=14725.6kbits/s speed=1.87x    frame=  251 fps= 49 q=29.0 size=   18432kB time=00:00:10.95 bitrate=13777.2kbits/s speed=2.16x    frame=  251 fps= 45 q=29.0 size=   18432kB time=00:00:10.95 bitrate=13777.2kbits/s speed=1.97x    [out#0/mp4 @ 000002191c44a780] video:18537kB audio:228kB subtitle:0kB other streams:0kB global headers:0kB muxing overhead: 0.071788%
frame=  361 fps= 61 q=-1.0 Lsize=   18778kB time=00:00:11.93 bitrate=12890.8kbits/s speed=2.01x    
[libx264 @ 000002191ba01880] frame I:2     Avg QP:22.80  size:155851
[libx264 @ 000002191ba01880] frame P:95    Avg QP:20.69  size: 74540
[libx264 @ 000002191ba01880] frame B:264   Avg QP:24.15  size: 43894
[libx264 @ 000002191ba01880] consecutive B-frames:  1.1%  2.8%  4.2% 92.0%
[libx264 @ 000002191ba01880] mb I  I16..4: 14.7% 59.6% 25.7%
[libx264 @ 000002191ba01880] mb P  I16..4:  4.0% 17.9%  8.7%  P16..4:  8.0%  4.2%  1.6%  0.0%  0.0%    skip:55.6%
[libx264 @ 000002191ba01880] mb B  I16..4:  1.2%  1.9%  2.0%  B16..8: 13.9%  7.2%  2.0%  direct: 3.2%  skip:68.6%  L0:42.9% L1:42.9% BI:14.2%
[libx264 @ 000002191ba01880] 8x8 transform intra:52.1% inter:47.5%
[libx264 @ 000002191ba01880] coded y,uvDC,uvAC intra: 46.0% 34.8% 13.0% inter: 11.0% 6.5% 0.2%
[libx264 @ 000002191ba01880] i16 v,h,dc,p: 57% 30%  5%  8%
[libx264 @ 000002191ba01880] i8 v,h,dc,ddl,ddr,vr,hd,vl,hu: 34% 18% 25%  3%  4%  4%  4%  3%  4%
[libx264 @ 000002191ba01880] i4 v,h,dc,ddl,ddr,vr,hd,vl,hu: 34% 26% 14%  3%  5%  4%  5%  3%  4%
[libx264 @ 000002191ba01880] i8c dc,h,v,p: 66% 16% 15%  3%
[libx264 @ 000002191ba01880] Weighted P-Frames: Y:4.2% UV:2.1%
[libx264 @ 000002191ba01880] ref P L0: 58.5% 14.7% 18.5%  8.0%  0.3%
[libx264 @ 000002191ba01880] ref B L0: 89.0%  8.9%  2.1%
[libx264 @ 000002191ba01880] ref B L1: 96.1%  3.9%
[libx264 @ 000002191ba01880] kb/s:12618.95
[aac @ 000002191b9ff880] Qavg: 56666.449
